P1
5 4
00000
00000
00000
00001
