P1
5 4
00000
00010
00000
00000
